<?xml version="1.0" encoding="utf-8"?>
<!-- Generator: Adobe Illustrator 17.1.0, SVG Export Plug-In . SVG Version: 6.00 Build 0)  -->
<!DOCTYPE svg PUBLIC "-//W3C//DTD SVG 1.1//EN" "http://www.w3.org/Graphics/SVG/1.1/DTD/svg11.dtd">
<svg version="1.1" id="Layer_1" xmlns="http://www.w3.org/2000/svg" xmlns:xlink="http://www.w3.org/1999/xlink" x="0px" y="0px"
	 viewBox="0 0 1024 768" enable-background="new 0 0 1024 768" xml:space="preserve">
<path fill="#FFFFFF" d="M856.1,119.6l-0.2-4.8c-1.2-10-6.7-18.6-15-23.8l0,0c-16.1-11.5-40.9-12.5-61.2-2.1
	c-15.6,7.9-41.9,29.4-41.9,83.3v106.2c-26.9,30.3-63.7,66-105.2,107.7c-20.2-24.8-60.1-42.4-103.3-42.4l0,0l0,0
	c-1,0-1.9,0.6-3.1,0.6c-47.2,0-91.2,16.9-124,46.8c-35.5,32.4-54.3,77-54.3,128.6c0,44,17.3,84.7,48.6,114.6
	c-25.5,8.3-51.6,12.3-82.2,12.3c-57,0-106.2-18.8-125-48c-9.2-14.4-10.4-30.3-3.3-46.5c0.4-0.8,0-1.7-0.8-2.1
	c-0.8-0.4-1.7-0.2-2.1,0.6c-17.3,25.7-20,55.3-7.1,79.3c11.1,20.9,43.8,55.9,138.2,55.9c41.7,0,77.8-9,112.9-28.2
	c29,17.1,64.3,25.9,102.3,25.9c2.9,0,5.8,0,8.6-0.2c2.7,0.2,5.2-0.6,7.9-0.6c78.7,0,182.8-43.4,218.3-166.3h55.9v165.1H762
	c-1,0-1.7,1-1.7,1.9c0,1,0.8,1.9,1.7,1.9h91.8c0.4,0,0.8,0.4,1.2,0.2c0.4-0.4,0.6-0.4,0.6-0.8c0,0-0.4-329.5-0.4-448.5
	c0-0.6-0.4-1.2-1-1.5c-0.4-0.2-0.8,0-1.2,0s-0.8,0.2-1,0.4c-24,24-49.2,49.2-76,76.4v-67.2C856.8,156.1,856.1,138.2,856.1,119.6z
	 M850.7,119.6c0,17.7,0.2,34.4-74.7,117.9v-72c0-34.4,10.8-60.1,29.6-70.5c10.8-6,23.2-6,32.6-0.2c7.1,5.2,11.1,12.1,12.1,20.4
	C850.5,115.2,850.7,119.6,850.7,119.6z M644.5,456.4c27.6-29.6,58.6-62.8,93.1-99.5v79.9c0,27.3-2.1,52.6-7.3,75.6H591.9
	C608.4,495.4,625.9,476.5,644.5,456.4z M446,646.3c42.2-27.3,85.4-70.3,141.3-129v-0.8h141.9c-23.2,99.8-94.5,158-191.2,161.5
	C501.8,676.6,470.7,666.4,446,646.3z M529.1,349.4L529.1,349.4c32.8,0,61.2,15.9,77.8,41.7c15.9,24.8,18.8,55.1,7.9,81.4
	c-0.2,0.2-0.2,0.6-0.2,0.8c-75.5,73.3-134,124.2-190.8,150.3c-22.3-28.6-34.6-66.6-34.6-107.1c0-115.4,68.9-167,137.3-167
	C527.2,349.4,528.1,349.4,529.1,349.4z M737.8,349.8c-34.6,36.5-70.3,71.2-101,101.4c11.7-20.5,11.1-41.7-2.1-60.5
	c40.3-40.3,76.2-75.8,103.1-105.6V349.8z M765.6,512.6c6.9-26.9,10.4-52.8,10.4-82.4V317.6c17.3-16.5,30.7-30.3,44.2-43.6v238.7
	H765.6z"/>
</svg>
